<?xml version="1.0" encoding="utf-8"?>
<!-- Generator: Adobe Illustrator 25.3.1, SVG Export Plug-In . SVG Version: 6.00 Build 0)  -->
<svg version="1.1"
	 id="svg1132" sodipodi:docname="logo_top_100x22.svg" xmlns:cc="http://creativecommons.org/ns#" xmlns:dc="http://purl.org/dc/elements/1.1/" xmlns:inkscape="http://www.inkscape.org/namespaces/inkscape" xmlns:rdf="http://www.w3.org/1999/02/22-rdf-syntax-ns#" xmlns:sodipodi="http://sodipodi.sourceforge.net/DTD/sodipodi-0.dtd" xmlns:svg="http://www.w3.org/2000/svg"
	 xmlns="http://www.w3.org/2000/svg" xmlns:xlink="http://www.w3.org/1999/xlink" x="0px" y="0px" viewBox="0 0 100 22"
	 style="enable-background:new 0 0 100 22;" xml:space="preserve">
<style type="text/css">
	.st0{fill:#DCE1EC;}
	.st1{fill:#4F9FEE;}
</style>
<g>
	<path class="st0" d="M10.2,10.3l5.5,4.7c0.1,0.1,0.2,0.2,0.2,0.3c0,0.1,0,0.2-0.1,0.2s-0.1,0.1-0.2,0.1c-0.1,0-0.2,0-0.3-0.1
		l-5.7-4.9l-2,1.2V15c0,0.2,0,0.3-0.1,0.4c-0.1,0.1-0.2,0.2-0.3,0.2c-0.2,0-0.3-0.1-0.3-0.2c0-0.1-0.1-0.3-0.1-0.4V6.6
		c0-0.2,0-0.3,0.1-0.4S7.1,6,7.3,6c0.2,0,0.3,0.1,0.3,0.2c0.1,0.1,0.1,0.2,0.1,0.4v4.5l7.6-5c0.1,0,0.1-0.1,0.2-0.1
		c0.1,0,0.1,0,0.2,0c0.1,0,0.2,0,0.2,0.1c0.1,0.1,0.1,0.1,0.1,0.2c0,0.1-0.1,0.2-0.2,0.3L10.2,10.3z"/>
	<path class="st0" d="M22.8,6.5c0.1-0.2,0.2-0.3,0.2-0.3C23.1,6,23.2,6,23.3,6c0.1,0,0.2,0,0.2,0.1c0.1,0.1,0.2,0.2,0.3,0.3l5.2,8.6
		c0.1,0.1,0.1,0.2,0.1,0.3c0,0.1,0,0.2-0.1,0.2s-0.1,0.1-0.2,0.1s-0.2,0-0.3-0.1c-0.1-0.1-0.2-0.2-0.3-0.3l-1.6-2.7H20l-1.6,2.7
		c-0.1,0.1-0.1,0.2-0.2,0.3c-0.1,0.1-0.2,0.1-0.3,0.1c-0.1,0-0.2,0-0.2-0.1c-0.1-0.1-0.1-0.2-0.1-0.3c0,0,0-0.1,0-0.1s0-0.1,0.1-0.2
		L22.8,6.5z M26.4,12.2L23.3,7l-3.1,5.1H26.4z"/>
	<path class="st0" d="M34.6,10.3l5.5,4.7c0.1,0.1,0.2,0.2,0.2,0.3c0,0.1,0,0.2-0.1,0.2s-0.1,0.1-0.2,0.1c-0.1,0-0.2,0-0.3-0.1
		L34,10.6l-2,1.2V15c0,0.2,0,0.3-0.1,0.4c-0.1,0.1-0.2,0.2-0.3,0.2c-0.2,0-0.3-0.1-0.3-0.2c0-0.1-0.1-0.3-0.1-0.4V6.6
		c0-0.2,0-0.3,0.1-0.4S31.5,6,31.7,6c0.2,0,0.3,0.1,0.3,0.2C32,6.3,32,6.4,32,6.6v4.5l7.6-5c0.1,0,0.1-0.1,0.2-0.1C39.9,6,40,6,40,6
		c0.1,0,0.2,0,0.2,0.1c0.1,0.1,0.1,0.1,0.1,0.2c0,0.1-0.1,0.2-0.2,0.3L34.6,10.3z"/>
	<path class="st0" d="M47.2,6.5c0.1-0.2,0.2-0.3,0.2-0.3C47.5,6,47.6,6,47.7,6c0.1,0,0.2,0,0.2,0.1c0.1,0.1,0.2,0.2,0.3,0.3l5.2,8.6
		c0.1,0.1,0.1,0.2,0.1,0.3c0,0.1,0,0.2-0.1,0.2c-0.1,0.1-0.1,0.1-0.2,0.1c-0.1,0-0.2,0-0.3-0.1c-0.1-0.1-0.2-0.2-0.3-0.3l-1.6-2.7
		h-6.7l-1.6,2.7c-0.1,0.1-0.1,0.2-0.2,0.3c-0.1,0.1-0.2,0.1-0.3,0.1c-0.1,0-0.2,0-0.2-0.1c-0.1-0.1-0.1-0.2-0.1-0.3c0,0,0-0.1,0-0.1
		s0-0.1,0.1-0.2L47.2,6.5z M50.8,12.2L47.7,7l-3.1,5.1H50.8z"/>
	<path class="st1" d="M66.2,12.8c0,0.6-0.1,1.1-0.4,1.4c-0.2,0.4-0.6,0.6-1,0.9c-0.4,0.2-0.9,0.3-1.5,0.4c-0.6,0.1-1.2,0.1-1.9,0.1
		h-5.4c-0.1,0-0.2,0-0.2-0.1c-0.1-0.1-0.1-0.1-0.1-0.2v-9c0-0.1,0-0.2,0.1-0.2S55.9,6,56,6h4.3c0.5,0,0.9,0,1.3,0s0.9,0,1.3,0.1
		c0.4,0,0.8,0.1,1.1,0.2c0.3,0.1,0.6,0.2,0.9,0.4c0.2,0.2,0.4,0.4,0.6,0.7c0.1,0.3,0.2,0.6,0.2,1c0,0.3-0.1,0.6-0.2,0.8
		c-0.1,0.2-0.2,0.4-0.4,0.6s-0.3,0.3-0.5,0.4c-0.2,0.1-0.4,0.2-0.5,0.2c-0.2,0-0.3,0.1-0.5,0.1c-0.1,0-0.3,0-0.3,0h-0.1
		c0.4,0,0.8,0.1,1.1,0.2s0.7,0.2,1,0.4c0.3,0.2,0.5,0.4,0.7,0.7C66.1,12,66.2,12.4,66.2,12.8z M64.8,8.4c0-0.3-0.1-0.6-0.2-0.8
		c-0.1-0.2-0.3-0.4-0.6-0.6s-0.7-0.3-1.3-0.4c-0.5-0.1-1.2-0.1-2.1-0.1h-4.2v3.7h4.5c0.7,0,1.3,0,1.8-0.1c0.5,0,0.9-0.1,1.2-0.3
		c0.3-0.1,0.6-0.3,0.7-0.6C64.7,9.1,64.8,8.8,64.8,8.4z M65.4,12.8c0-0.4-0.1-0.7-0.3-1c-0.2-0.3-0.5-0.5-0.9-0.6s-0.9-0.3-1.4-0.3
		c-0.6-0.1-1.2-0.1-1.9-0.1h-4.5V15h5.3c0.9,0,1.5-0.1,2-0.2c0.5-0.1,0.9-0.3,1.1-0.5s0.4-0.4,0.4-0.7
		C65.4,13.4,65.4,13.1,65.4,12.8z"/>
	<path class="st1" d="M82.5,10.8c0,0.8-0.1,1.6-0.4,2.2c-0.3,0.6-0.7,1.1-1.3,1.6c-0.6,0.4-1.3,0.7-2.2,0.9
		c-0.9,0.2-1.9,0.3-3.1,0.3c-1.2,0-2.2-0.1-3.1-0.3c-0.9-0.2-1.6-0.5-2.2-0.9c-0.6-0.4-1-0.9-1.3-1.6s-0.4-1.4-0.4-2.2
		c0-0.8,0.1-1.6,0.4-2.2s0.7-1.1,1.3-1.6c0.6-0.4,1.3-0.7,2.2-0.9c0.9-0.2,1.9-0.3,3.1-0.3c1.2,0,2.2,0.1,3.1,0.3
		c0.9,0.2,1.6,0.5,2.2,0.9c0.6,0.4,1,0.9,1.3,1.6C82.3,9.2,82.5,10,82.5,10.8z M69.4,10.8c0,0.8,0.1,1.5,0.4,2
		c0.3,0.6,0.6,1,1.1,1.4c0.5,0.4,1.1,0.6,1.9,0.8c0.8,0.2,1.7,0.2,2.7,0.2c1,0,1.9-0.1,2.7-0.2c0.8-0.2,1.4-0.4,1.9-0.8
		s0.9-0.8,1.1-1.4c0.3-0.6,0.4-1.2,0.4-2c0-0.8-0.1-1.5-0.4-2c-0.3-0.6-0.6-1-1.1-1.4c-0.5-0.4-1.2-0.6-1.9-0.8
		c-0.8-0.2-1.7-0.2-2.7-0.2c-1,0-1.9,0.1-2.7,0.2c-0.8,0.2-1.4,0.4-1.9,0.8c-0.5,0.4-0.9,0.8-1.1,1.4C69.5,9.3,69.4,10,69.4,10.8z"
		/>
	<path class="st1" d="M95.6,6.3c0,0.1,0,0.2-0.1,0.2c-0.1,0-0.2,0-0.3,0h-5.3V15c0,0.1,0,0.2,0,0.2c0,0.1,0,0.1-0.1,0.2
		c0,0.1-0.1,0.1-0.1,0.1s-0.1,0.1-0.2,0.1c-0.2,0-0.3-0.1-0.3-0.2C89.1,15.3,89,15.1,89,15V6.6h-5.3c-0.1,0-0.3,0-0.4,0
		s-0.1-0.1-0.1-0.2c0-0.1,0-0.2,0.1-0.2c0,0,0.1-0.1,0.2-0.1c0.1,0,0.1,0,0.2,0s0.2,0,0.2,0h11c0.1,0,0.2,0,0.3,0s0.2,0,0.2,0
		c0.1,0,0.1,0,0.1,0.1C95.6,6.2,95.6,6.2,95.6,6.3z"/>
</g>
<ellipse class="st0" cx="72.6" cy="10.3" rx="0.6" ry="0.9"/>
<ellipse class="st0" cx="79.1" cy="10.3" rx="0.6" ry="0.9"/>
</svg>
