<?xml version="1.0" encoding="utf-8"?>
<!-- Generator: Adobe Illustrator 25.3.1, SVG Export Plug-In . SVG Version: 6.00 Build 0)  -->
<svg version="1.1"
	 id="svg1132" sodipodi:docname="logo_home.svg" xmlns:cc="http://creativecommons.org/ns#" xmlns:dc="http://purl.org/dc/elements/1.1/" xmlns:inkscape="http://www.inkscape.org/namespaces/inkscape" xmlns:rdf="http://www.w3.org/1999/02/22-rdf-syntax-ns#" xmlns:sodipodi="http://sodipodi.sourceforge.net/DTD/sodipodi-0.dtd" xmlns:svg="http://www.w3.org/2000/svg"
	 xmlns="http://www.w3.org/2000/svg" xmlns:xlink="http://www.w3.org/1999/xlink" x="0px" y="0px" viewBox="0 0 300 70"
	 style="enable-background:new 0 0 300 70;" xml:space="preserve">
<style type="text/css">
	.st0{display:none;}
	.st1{display:inline;}
	.st2{fill:#DCE1EC;}
	.st3{fill:#4F9FEE;}
	.st4{display:inline;fill:#4F9FEE;}
	.st5{display:inline;fill:#3D8AD5;}
	.st6{display:inline;fill:#2D7BC5;}
	.st7{font-family:'Gruppo';}
	.st8{font-size:48.7355px;}
</style>
<defs>
	
		<inkscape:path-effect  apply_no_radius="true" apply_with_radius="true" chamfer_steps="1" effect="fillet_chamfer" flexible="false" hide_knots="false" id="path-effect1836" is_visible="true" lpeversion="1" method="auto" mode="F" only_selected="true" radius="1" satellites_param="F,0,0,1,0,0,0,1 @ F,0,1,1,0,0.26458333,0,1 @ F,0,1,1,0,0.26458333,0,1 @ F,0,0,1,0,0,0,1 @ F,0,0,1,0,0,0,1 @ F,0,0,1,0,0,0,1 @ F,0,0,1,0,0,0,1 @ F,0,0,1,0,0,0,1 @ F,0,0,1,0,0,0,1" unit="px" use_knot_distance="true">
		</inkscape:path-effect>
</defs>
<sodipodi:namedview  bordercolor="#666666" borderopacity="1.0" id="base" inkscape:current-layer="layer1" inkscape:cx="103.4558" inkscape:cy="-63.038698" inkscape:document-rotation="0" inkscape:document-units="mm" inkscape:pageopacity="0.0" inkscape:pageshadow="2" inkscape:window-height="1027" inkscape:window-maximized="1" inkscape:window-width="1920" inkscape:window-x="1912" inkscape:window-y="-8" inkscape:zoom="2.3156936" pagecolor="#ffffff" showgrid="false" units="px">
	</sodipodi:namedview>
<g id="layer1" inkscape:groupmode="layer" inkscape:label="Layer 1">
	<g id="g1811" transform="matrix(3.0579283,0,0,3.0579283,-0.79418142,0.36057057)">
		<g id="g1822" transform="matrix(0.37563903,0,0,0.37563903,-64.288753,-32.575173)" class="st0">
			<g id="g1810" class="st1">
				<g id="g1804">
					<g id="g1800" transform="translate(-0.108475,-0.0784345)">
						<path id="path1796" class="st2" d="M263.1,115.2c0-1.3-1-2.3-2.3-2.3h-3v8.1h1.3v-3.5h1.7
							C262.1,117.5,263.1,116.5,263.1,115.2z M261.8,115.2c0,0.6-0.4,1.2-1.1,1.2h-1.7V114h1.7C261.4,114,261.8,114.6,261.8,115.2
							L261.8,115.2z"/>
						<path id="path1798" class="st2" d="M269.8,112.9l-2.3,3l-2.3-3h-1.6l3.2,4.2v3.9h1.3v-3.9l3.2-4.2H269.8z"/>
					</g>
					<path id="path1802" class="st2" d="M279.5,116.9c0-8.3-6.7-15-15-15s-15,6.7-15,15s6.7,15,15,15S279.5,125.1,279.5,116.9z
						 M276.4,116.9c0,6.8-5.4,12.3-12,12.3c-6.6,0-12-5.5-12-12.3s5.4-12.3,12-12.3C271.1,104.5,276.4,110.1,276.4,116.9z"/>
				</g>
				<path id="path1806" class="st2" d="M305.9,102.6h-3v23.4l-15.4-23.4h-3v28.5h3v-23.4l15.4,23.4h3V102.6z"/>
				<path id="path1808" class="st2" d="M327.7,128.5H315v-10.2h11.6v-2.7H315v-10.2h12.7v-2.7h-15.8v28.5h15.8V128.5z"/>
			</g>
			<g id="g1820" class="st1">
				<path id="path1812" class="st3" d="M356.3,116.9c0-7.8-6.3-14.2-14.2-14.2h-9.9v28.5h9.9C349.9,131.1,356.3,124.7,356.3,116.9z
					 M349.8,116.9c0,4.4-3.6,8-8,8h-3v-16h3C346.2,108.9,349.8,112.5,349.8,116.9z"/>
				<path id="path1814" class="st3" d="M375.5,102.6h-6.8l-10.8,28.5h6.9l1.5-4h11.5l1.5,4h7L375.5,102.6z M368.6,120.9l3.5-9.1
					l3.4,9.1H368.6z"/>
				<path id="path1816" class="st3" d="M400.4,119.6c3.5-1.1,6.1-4.4,6.1-8.3c0-4.8-3.9-8.7-8.7-8.7h-9.4v28.5h6.5v-8l6.3,8h8.1
					L400.4,119.6z M400,111.3c0,1.6-0.9,2.5-2.1,2.5H395v-4.9h2.8C399,108.9,400,109.8,400,111.3z"/>
				<path id="path1818" class="st3" d="M424.8,102.6l-7.6,9v-9h-6.5v28.5h6.5v-8.8l7.5,8.8h8.2l-12.1-14.2l12.1-14.3H424.8z"/>
			</g>
		</g>
		<g id="g1790" class="st0">
			<path id="path1824" sodipodi:nodetypes="ssccssssccss" class="st4" d="M22.1,10c0-5.3-4.3-9.7-9.7-9.7H6v19.4h6.4
				C17.7,19.7,22.1,15.4,22.1,10z M17.6,10c0,3-2.4,5.5-5.5,5.5h-4V4.6h4C15.2,4.6,17.6,7,17.6,10z"/>
			<path id="path1826" sodipodi:nodetypes="cccsccccccccc" class="st5" d="M7,0.3l-1.3,0v4.1C6.4,4.5,7,5,7,5.7v14h3.9
				c0.4-0.8,0.6-1.7,0.5-2.6v-1.7H8.1V4.6h3.3C11.1,2.3,9.3,0.5,7,0.3L7,0.3z"/>
			<path id="path1828" sodipodi:nodetypes="cccsccccccccc" class="st6" d="M6.3,0.3l-0.6,0v4.1C6.4,4.5,7,5,7,5.7v14h3.2
				c0.4-0.8,0.6-1.7,0.5-2.6v-1.7H7.4V4.6h3.3C10.4,2.3,8.4,0.3,6.3,0.3L6.3,0.3z"/>
			
				<path id="path1830" inkscape:original-d="M 1.6877949,2.2554433e-6 1.1470667,0.00944201 0.10799299,1.0937135 1.3453905,1.0924815 c 0.1890319,-2.581e-4 0.3424044,0.152908 0.3424044,0.3419373 V 5.8208335 C 2.3912578,5.7679015 2.9185985,5.1546923 2.8656498,4.4512261 V 1.3696243 C 2.9185792,0.66616151 2.3912578,0.05296662 1.6877949,1.5103439e-5 Z" inkscape:path-effect="#path-effect1836" sodipodi:nodetypes="ccccccccsc" class="st2" d="
				M5.7,0.3l-1,0C4,0.4,3.4,0.6,2.9,1.1L0.4,3.7c-0.2,0.2-0.2,0.4,0,0.6c0.1,0.1,0.2,0.1,0.3,0.1l3.7,0c0.7,0,1.3,0.6,1.3,1.3v16.6
				c2.7-0.2,4.7-2.5,4.5-5.2V5.5C10.3,2.8,8.3,0.5,5.7,0.3L5.7,0.3z"/>
		</g>
	</g>
</g>
<text transform="matrix(1 0 0 1 86.5039 169.7363)" class="st0"><tspan x="0" y="0" style="display:inline;fill:#DCE1EC; font-family:'MyriadPro-Regular'; font-size:48px;">kaka</tspan><tspan x="91.3" y="0" class="st4" style="font-family:'MyriadPro-Regular'; font-size:48px;">bot</tspan></text>
<text transform="matrix(1.0974 0 0 1 25.1458 49.7659)"><tspan x="0" y="0" class="st2 st7 st8">KAKA</tspan><tspan x="122.7" y="0" class="st3 st7 st8">BOT</tspan></text>
<ellipse class="st2" cx="209.8" cy="34.3" rx="1.8" ry="2.5"/>
<ellipse class="st2" cx="228.5" cy="34.3" rx="1.8" ry="2.5"/>
</svg>
